<?xml version="1.0" standalone="no"?><!DOCTYPE svg PUBLIC "-//W3C//DTD SVG 1.1//EN" "http://www.w3.org/Graphics/SVG/1.1/DTD/svg11.dtd"><svg t="1588154182409" class="icon" viewBox="0 0 1024 1024" version="1.1" xmlns="http://www.w3.org/2000/svg" p-id="2775" xmlns:xlink="http://www.w3.org/1999/xlink" width="200" height="200"><defs><style type="text/css"></style></defs><path d="M955.869867 238.933333H68.130133A68.215467 68.215467 0 0 0 0 307.063467v409.873066A68.215467 68.215467 0 0 0 68.130133 785.066667h887.739734A68.215467 68.215467 0 0 0 1024 716.936533V307.063467A68.215467 68.215467 0 0 0 955.869867 238.933333zM68.130133 750.933333A34.048 34.048 0 0 1 34.133333 716.936533V307.063467C34.133333 288.324267 49.390933 273.066667 68.130133 273.066667h409.873067c18.7392 0 33.9968 15.2576 33.9968 33.9968v409.873066A34.048 34.048 0 0 1 478.0032 750.933333H68.130133zM989.866667 716.936533A34.048 34.048 0 0 1 955.869867 750.933333H536.695467A67.413333 67.413333 0 0 0 546.133333 716.936533V307.063467A67.413333 67.413333 0 0 0 536.695467 273.066667h419.1744c18.7392 0 33.9968 15.2576 33.9968 33.9968v409.873066z" fill="" p-id="2776"></path><path d="M597.333333 358.4m-17.066666 0a17.066667 17.066667 0 1 0 34.133333 0 17.066667 17.066667 0 1 0-34.133333 0Z" fill="" p-id="2777"></path><path d="M699.733333 358.4m-17.066666 0a17.066667 17.066667 0 1 0 34.133333 0 17.066667 17.066667 0 1 0-34.133333 0Z" fill="" p-id="2778"></path><path d="M648.533333 307.2m-17.066666 0a17.066667 17.066667 0 1 0 34.133333 0 17.066667 17.066667 0 1 0-34.133333 0Z" fill="" p-id="2779"></path><path d="M750.933333 307.2m-17.066666 0a17.066667 17.066667 0 1 0 34.133333 0 17.066667 17.066667 0 1 0-34.133333 0Z" fill="" p-id="2780"></path><path d="M648.533333 409.6m-17.066666 0a17.066667 17.066667 0 1 0 34.133333 0 17.066667 17.066667 0 1 0-34.133333 0Z" fill="" p-id="2781"></path><path d="M750.933333 409.6m-17.066666 0a17.066667 17.066667 0 1 0 34.133333 0 17.066667 17.066667 0 1 0-34.133333 0Z" fill="" p-id="2782"></path><path d="M802.133333 358.4m-17.066666 0a17.066667 17.066667 0 1 0 34.133333 0 17.066667 17.066667 0 1 0-34.133333 0Z" fill="" p-id="2783"></path><path d="M904.533333 358.4m-17.066666 0a17.066667 17.066667 0 1 0 34.133333 0 17.066667 17.066667 0 1 0-34.133333 0Z" fill="" p-id="2784"></path><path d="M853.333333 307.2m-17.066666 0a17.066667 17.066667 0 1 0 34.133333 0 17.066667 17.066667 0 1 0-34.133333 0Z" fill="" p-id="2785"></path><path d="M955.733333 307.2m-17.066666 0a17.066667 17.066667 0 1 0 34.133333 0 17.066667 17.066667 0 1 0-34.133333 0Z" fill="" p-id="2786"></path><path d="M853.333333 409.6m-17.066666 0a17.066667 17.066667 0 1 0 34.133333 0 17.066667 17.066667 0 1 0-34.133333 0Z" fill="" p-id="2787"></path><path d="M955.733333 409.6m-17.066666 0a17.066667 17.066667 0 1 0 34.133333 0 17.066667 17.066667 0 1 0-34.133333 0Z" fill="" p-id="2788"></path><path d="M597.333333 665.6m-17.066666 0a17.066667 17.066667 0 1 0 34.133333 0 17.066667 17.066667 0 1 0-34.133333 0Z" fill="" p-id="2789"></path><path d="M648.533333 716.8m-17.066666 0a17.066667 17.066667 0 1 0 34.133333 0 17.066667 17.066667 0 1 0-34.133333 0Z" fill="" p-id="2790"></path><path d="M699.733333 665.6m-17.066666 0a17.066667 17.066667 0 1 0 34.133333 0 17.066667 17.066667 0 1 0-34.133333 0Z" fill="" p-id="2791"></path><path d="M802.133333 665.6m-17.066666 0a17.066667 17.066667 0 1 0 34.133333 0 17.066667 17.066667 0 1 0-34.133333 0Z" fill="" p-id="2792"></path><path d="M750.933333 716.8m-17.066666 0a17.066667 17.066667 0 1 0 34.133333 0 17.066667 17.066667 0 1 0-34.133333 0Z" fill="" p-id="2793"></path><path d="M853.333333 716.8m-17.066666 0a17.066667 17.066667 0 1 0 34.133333 0 17.066667 17.066667 0 1 0-34.133333 0Z" fill="" p-id="2794"></path><path d="M904.533333 665.6m-17.066666 0a17.066667 17.066667 0 1 0 34.133333 0 17.066667 17.066667 0 1 0-34.133333 0Z" fill="" p-id="2795"></path><path d="M955.733333 716.8m-17.066666 0a17.066667 17.066667 0 1 0 34.133333 0 17.066667 17.066667 0 1 0-34.133333 0Z" fill="" p-id="2796"></path><path d="M597.333333 460.8m-17.066666 0a17.066667 17.066667 0 1 0 34.133333 0 17.066667 17.066667 0 1 0-34.133333 0Z" fill="" p-id="2797"></path><path d="M699.733333 460.8m-17.066666 0a17.066667 17.066667 0 1 0 34.133333 0 17.066667 17.066667 0 1 0-34.133333 0Z" fill="" p-id="2798"></path><path d="M597.333333 563.2m-17.066666 0a17.066667 17.066667 0 1 0 34.133333 0 17.066667 17.066667 0 1 0-34.133333 0Z" fill="" p-id="2799"></path><path d="M699.733333 563.2m-17.066666 0a17.066667 17.066667 0 1 0 34.133333 0 17.066667 17.066667 0 1 0-34.133333 0Z" fill="" p-id="2800"></path><path d="M648.533333 512m-17.066666 0a17.066667 17.066667 0 1 0 34.133333 0 17.066667 17.066667 0 1 0-34.133333 0Z" fill="" p-id="2801"></path><path d="M750.933333 512m-17.066666 0a17.066667 17.066667 0 1 0 34.133333 0 17.066667 17.066667 0 1 0-34.133333 0Z" fill="" p-id="2802"></path><path d="M648.533333 614.4m-17.066666 0a17.066667 17.066667 0 1 0 34.133333 0 17.066667 17.066667 0 1 0-34.133333 0Z" fill="" p-id="2803"></path><path d="M750.933333 614.4m-17.066666 0a17.066667 17.066667 0 1 0 34.133333 0 17.066667 17.066667 0 1 0-34.133333 0Z" fill="" p-id="2804"></path><path d="M802.133333 460.8m-17.066666 0a17.066667 17.066667 0 1 0 34.133333 0 17.066667 17.066667 0 1 0-34.133333 0Z" fill="" p-id="2805"></path><path d="M904.533333 460.8m-17.066666 0a17.066667 17.066667 0 1 0 34.133333 0 17.066667 17.066667 0 1 0-34.133333 0Z" fill="" p-id="2806"></path><path d="M802.133333 563.2m-17.066666 0a17.066667 17.066667 0 1 0 34.133333 0 17.066667 17.066667 0 1 0-34.133333 0Z" fill="" p-id="2807"></path><path d="M904.533333 563.2m-17.066666 0a17.066667 17.066667 0 1 0 34.133333 0 17.066667 17.066667 0 1 0-34.133333 0Z" fill="" p-id="2808"></path><path d="M853.333333 512m-17.066666 0a17.066667 17.066667 0 1 0 34.133333 0 17.066667 17.066667 0 1 0-34.133333 0Z" fill="" p-id="2809"></path><path d="M955.733333 512m-17.066666 0a17.066667 17.066667 0 1 0 34.133333 0 17.066667 17.066667 0 1 0-34.133333 0Z" fill="" p-id="2810"></path><path d="M853.333333 614.4m-17.066666 0a17.066667 17.066667 0 1 0 34.133333 0 17.066667 17.066667 0 1 0-34.133333 0Z" fill="" p-id="2811"></path><path d="M955.733333 614.4m-17.066666 0a17.066667 17.066667 0 1 0 34.133333 0 17.066667 17.066667 0 1 0-34.133333 0Z" fill="" p-id="2812"></path><path d="M221.866667 443.733333a17.066667 17.066667 0 0 0-17.066667 17.066667v102.4a17.066667 17.066667 0 1 0 34.133333 0v-102.4a17.066667 17.066667 0 0 0-17.066666-17.066667zM273.066667 443.733333a17.066667 17.066667 0 0 0-17.066667 17.066667v102.4a17.066667 17.066667 0 1 0 34.133333 0v-102.4a17.066667 17.066667 0 0 0-17.066666-17.066667zM324.266667 443.733333a17.066667 17.066667 0 0 0-17.066667 17.066667v102.4a17.066667 17.066667 0 1 0 34.133333 0v-102.4a17.066667 17.066667 0 0 0-17.066666-17.066667z" fill="" p-id="2813"></path></svg>