<?xml version="1.0" standalone="no"?><!DOCTYPE svg PUBLIC "-//W3C//DTD SVG 1.1//EN" "http://www.w3.org/Graphics/SVG/1.1/DTD/svg11.dtd"><svg t="1588154465175" class="icon" viewBox="0 0 1024 1024" version="1.1" xmlns="http://www.w3.org/2000/svg" p-id="8440" xmlns:xlink="http://www.w3.org/1999/xlink" width="200" height="200"><defs><style type="text/css"></style></defs><path d="M128 128a64 64 0 1 0 0 128h768a64 64 0 1 0 0-128H128zM64 512a64 64 0 0 1 64-64h768a64 64 0 1 1 0 128H128a64 64 0 0 1-64-64zM64 832a64 64 0 0 1 64-64h768a64 64 0 1 1 0 128H128a64 64 0 0 1-64-64z" p-id="8441"></path></svg>