<?xml version="1.0" standalone="no"?><!DOCTYPE svg PUBLIC "-//W3C//DTD SVG 1.1//EN" "http://www.w3.org/Graphics/SVG/1.1/DTD/svg11.dtd"><svg t="1588154212040" class="icon" viewBox="0 0 1024 1024" version="1.1" xmlns="http://www.w3.org/2000/svg" p-id="3558" xmlns:xlink="http://www.w3.org/1999/xlink" width="200" height="200"><defs><style type="text/css"></style></defs><path d="M864 128H160c-19.2 0-32 12.8-32 32v704c0 19.2 12.8 32 32 32h352c19.2 0 32-12.8 32-32s-12.8-32-32-32H192V192h640v320c0 19.2 12.8 32 32 32s32-12.8 32-32V160c0-19.2-12.8-32-32-32z" p-id="3559"></path><path d="M588.8 544H736c19.2 0 32-12.8 32-32s-12.8-32-32-32h-224c-3.2 0-9.6 0-12.8 3.2-6.4 3.2-12.8 9.6-16 16-3.2 3.2-3.2 9.6-3.2 12.8v224c0 19.2 12.8 32 32 32s32-12.8 32-32v-147.2l233.6 233.6c6.4 6.4 16 9.6 22.4 9.6s16-3.2 22.4-9.6c12.8-12.8 12.8-32 0-44.8L588.8 544z" p-id="3560"></path></svg>