<?xml version="1.0" standalone="no"?><!DOCTYPE svg PUBLIC "-//W3C//DTD SVG 1.1//EN" "http://www.w3.org/Graphics/SVG/1.1/DTD/svg11.dtd"><svg t="1588154235363" class="icon" viewBox="0 0 1024 1024" version="1.1" xmlns="http://www.w3.org/2000/svg" p-id="5048" xmlns:xlink="http://www.w3.org/1999/xlink" width="200" height="200"><defs><style type="text/css"></style></defs><path d="M924.16 442.453333a26.453333 26.453333 0 0 0 2.986667-8.106666l32-170.666667a42.666667 42.666667 0 0 0-85.333334-15.36l-15.786666 85.333333a393.386667 393.386667 0 0 0-707.413334 35.84 42.666667 42.666667 0 0 0 23.466667 55.466667 42.666667 42.666667 0 0 0 55.893333-23.466667A302.08 302.08 0 0 1 514.986667 213.333333a305.92 305.92 0 0 1 266.24 152.746667l-70.4-11.52a42.666667 42.666667 0 1 0-13.653334 85.333333l181.333334 30.293334h6.826666a39.68 39.68 0 0 0 14.506667-2.56 14.08 14.08 0 0 0 4.266667-2.56 33.28 33.28 0 0 0 8.533333-4.693334l3.413333-4.266666a45.653333 45.653333 0 0 0 5.973334-6.826667 24.746667 24.746667 0 0 0 2.133333-6.826667zM848.213333 600.32a42.666667 42.666667 0 0 0-55.893333 23.893333A302.08 302.08 0 0 1 509.013333 810.666667a305.92 305.92 0 0 1-266.24-152.746667l70.4 11.52h6.826667a42.666667 42.666667 0 0 0 6.826667-85.333333L145.493333 554.666667a38.826667 38.826667 0 0 0-14.08 0H128a49.066667 49.066667 0 0 0-13.653333 5.973333 42.666667 42.666667 0 0 0-7.68 7.68l-3.84 4.266667a35.84 35.84 0 0 0-2.986667 8.106666 18.773333 18.773333 0 0 0-2.986667 7.253334l-32 170.666666a42.666667 42.666667 0 0 0 34.133334 52.053334h7.68a42.666667 42.666667 0 0 0 42.666666-34.986667l15.786667-85.333333a393.386667 393.386667 0 0 0 707.413333-35.413334 42.666667 42.666667 0 0 0-24.32-54.613333z" p-id="5049"></path></svg>